<svg width="177" height="19" viewBox="0 0 177 19" fill="none" xmlns="http://www.w3.org/2000/svg">
<path d="M2.16566 1.72799C-1.46034 4.5022 -0.424341 8.66353 4.45966 10.8537C8.38166 12.5328 8.45566 14.139 4.68166 14.139C3.12766 14.139 1.49966 13.7739 0.981659 13.2629C0.315659 12.6058 0.0936588 12.9709 0.0936588 15.015C0.0936588 17.4972 0.241659 17.7162 2.97966 18.1543C11.6377 19.6144 15.4117 11.4377 7.86366 7.49544C3.86766 5.37827 3.94166 4.21018 8.08566 4.5022C10.6017 4.64822 11.1937 4.4292 11.5637 3.1151C12.2297 1.14394 11.8597 0.851919 7.71566 0.486891C4.82966 0.194868 3.79366 0.413885 2.16566 1.72799Z" fill="white"/>
<path d="M14.0797 0.632914C13.4877 3.33412 13.9317 4.2832 15.9297 4.2832L18.0757 4.3562L17.9277 11.0727L17.7797 17.7893H20.2217H22.6637V11.0727V4.2832L25.1057 4.50222C27.3257 4.72123 27.4737 4.57522 27.4737 2.53106V0.267885H20.8137C17.1877 0.267885 14.1537 0.413897 14.0797 0.632914Z" fill="white"/>
<path d="M29.6937 7.05741C29.6937 14.796 30.4337 16.4751 34.5037 17.7892C37.9077 18.8843 41.1637 18.1543 43.0137 15.8181C44.2717 14.212 44.4937 12.8249 44.4937 7.13042V0.267881H42.2737H40.1277L39.9057 6.98441C39.6837 13.7009 39.6837 13.7739 37.7597 13.993C34.6517 14.358 33.9117 12.6789 34.2817 6.10834L34.5037 0.267881H32.1357H29.6937V7.05741Z" fill="white"/>
<path d="M48.7857 9.02857L48.5637 17.7893H52.7817C55.0757 17.7893 57.8137 17.4972 58.8497 17.0592C61.2917 16.1831 63.7337 12.2408 63.7337 9.17458C63.7337 3.48014 59.7377 0.267885 52.7077 0.267885H49.0077L48.7857 9.02857ZM56.9257 5.08626C60.1077 7.20343 58.4057 14.139 54.7057 14.139C53.5217 14.139 53.3737 13.4819 53.3737 9.02857C53.3737 3.55314 53.8917 2.9691 56.9257 5.08626Z" fill="white"/>
<path d="M66.6937 9.02857V17.7893H69.1357H71.5037V9.02857V0.267885H69.1357H66.6937V9.02857Z" fill="white"/>
<path d="M78.6817 1.43597C73.1317 5.23227 73.8717 15.088 79.8657 17.5702C85.4157 19.8334 90.8917 16.9132 91.6317 11.3647C92.2977 6.40036 91.3357 3.33412 88.6717 1.72799C85.7857 -0.0241432 80.9757 -0.170155 78.6817 1.43597ZM85.8597 4.86724C88.5237 8.07949 86.9697 14.139 83.4917 14.139C80.9757 14.139 80.0137 12.7519 80.0137 9.32059C80.0137 4.79423 83.4917 2.16603 85.8597 4.86724Z" fill="white"/>
<path d="M95.7757 9.02857C95.8497 14.285 96.2197 17.7893 96.6637 17.7893C97.1077 17.7893 97.3297 16.2561 97.1817 14.139L96.8857 10.4887H101.03C103.324 10.4887 105.174 10.1237 105.174 9.75863C105.174 9.32059 103.324 9.02857 101.104 9.02857H97.0337V5.37828V1.728H101.474C103.916 1.728 105.914 1.43598 105.914 0.997942C105.914 0.559908 103.694 0.267885 100.734 0.267885H95.6277L95.7757 9.02857Z" fill="white"/>
<path d="M110.28 2.31204C108.282 4.06418 107.838 5.01325 107.616 8.37151C107.172 13.4819 109.392 17.0592 113.536 18.0813C122.194 20.1984 127.078 8.80955 120.566 1.87401C118.198 -0.535183 113.314 -0.389172 110.28 2.31204ZM120.122 3.40713C124.34 8.73654 121.38 17.0592 115.238 17.0592C108.356 17.0592 106.358 5.52429 112.648 2.02002C115.016 0.705914 118.568 1.36296 120.122 3.40713Z" fill="white"/>
<path d="M127.374 9.3936C127.374 15.015 127.67 18.5193 128.114 18.5193C128.558 18.5193 128.854 16.6942 128.854 14.504C128.854 10.5617 128.928 10.4887 130.926 10.4887C132.628 10.4887 133.442 11.1457 135.44 14.504C136.772 16.6942 138.178 18.5193 138.548 18.5193C139.584 18.5193 139.362 18.0813 136.92 14.139L134.626 10.4887L136.18 9.17458C138.696 7.05741 138.918 4.2832 136.698 2.16603C135.218 0.632912 134.108 0.267883 131.074 0.267883H127.374V9.3936ZM135.81 2.89609C138.474 5.52429 136.18 9.02857 131.666 9.02857H128.854V5.37828V1.728H131.74C133.442 1.728 135.144 2.23904 135.81 2.89609Z" fill="white"/>
<path d="M142.174 9.3936C142.174 15.015 142.47 18.5193 142.914 18.5193C143.358 18.5193 143.654 15.3801 143.654 10.6347L143.728 2.82308L145.06 6.10834C145.874 7.93348 147.206 11.2917 148.094 13.6279C148.982 15.8911 150.018 18.0083 150.314 18.1543C150.684 18.3733 152.312 15.015 154.014 10.7077C155.716 6.40036 157.27 2.67707 157.492 2.45806C157.64 2.23904 157.714 5.5973 157.64 9.90464C157.566 14.285 157.714 17.7893 158.084 17.7893C158.454 17.7893 158.676 13.92 158.602 9.17458C158.528 2.89609 158.232 0.632914 157.566 0.632914C157.122 0.632914 155.346 3.99118 153.718 8.0795C152.09 12.2408 150.536 15.3071 150.24 15.015C150.018 14.723 148.538 11.2917 146.984 7.34944C143.062 -2.50633 142.174 -2.1413 142.174 9.3936Z" fill="white"/>
<path d="M164.818 9.10157C162.82 13.92 161.414 18.0813 161.71 18.3003C161.932 18.5193 162.82 17.2052 163.634 15.3071L165.114 11.8758L168.962 12.0948C172.736 12.3138 172.81 12.3138 173.846 15.3801C174.364 17.1322 175.178 18.5193 175.548 18.5193C175.918 18.5193 176.214 18.3733 176.214 18.0813C176.214 17.0592 169.258 0.267883 168.814 0.267883C168.592 0.267883 166.742 4.21019 164.818 9.10157ZM169.85 4.86724C172.218 10.4887 172.218 10.4887 168.814 10.4887C166.15 10.4887 165.78 10.2697 166.224 9.17458C166.446 8.51753 167.112 6.69239 167.556 5.15927C168.074 3.69915 168.518 2.45806 168.592 2.45806C168.74 2.45806 169.258 3.55314 169.85 4.86724Z" fill="white"/>
</svg>
